# Blender 3.5.0
# www.blender.org
mtllib Food Stall.mtl
o Plane.003
v -3.453843 0.018259 1.571603
v 6.494003 0.018259 1.571603
v -3.453843 0.018259 1.339188
v 6.494003 0.018259 1.339188
v -3.453843 3.083724 1.571603
v 6.494003 3.083724 1.571603
v -3.453843 3.083724 1.339188
v 6.494003 3.083724 1.339188
v -3.884332 3.223129 1.902691
v 6.853405 3.223129 1.902691
v -3.884332 3.223129 -1.902691
v 6.853405 3.223129 -1.902691
v -3.884332 3.045958 1.902691
v 6.853405 3.045958 1.902691
v -3.884332 3.045958 -1.902691
v 6.853405 3.045958 -1.902691
v -3.733935 3.223849 1.758922
v 0.071207 3.223849 1.758922
v -3.733935 3.223849 -1.758922
v 0.071207 3.223849 -1.758922
v -3.562507 3.294158 1.590980
v -0.100462 3.294158 1.590980
v -3.562507 3.294158 -1.590980
v -0.100462 3.294158 -1.590980
v -3.733935 3.294158 -1.758922
v -3.733935 3.294158 1.758922
v 0.071207 3.294158 1.758922
v 0.071207 3.294158 -1.758922
v -3.733935 4.020550 -1.758922
v -3.733935 3.614151 1.757765
v 0.071207 3.614151 1.757765
v 0.071207 4.020550 -1.758922
v -3.562507 4.020550 -1.590980
v -3.562507 3.634178 1.592137
v -0.100462 3.634178 1.592137
v -0.100462 4.020550 -1.590980
v 3.733935 3.223849 1.758923
v -0.071207 3.223849 1.758923
v 3.733935 3.223849 -1.758923
v -0.071207 3.223849 -1.758923
v 3.562508 3.294158 1.590980
v 0.100462 3.294158 1.590980
v 3.562508 3.294158 -1.590980
v 0.100462 3.294158 -1.590980
v 3.733935 3.294158 -1.758923
v 3.733935 3.294158 1.758923
v -0.071207 3.294158 1.758923
v -0.071207 3.294158 -1.758923
v 3.733935 4.020550 -1.758923
v 3.733935 3.614151 1.757765
v -0.071207 3.614151 1.757765
v -0.071207 4.020550 -1.758923
v 3.562508 4.020550 -1.590980
v 3.562508 3.634178 1.592138
v 0.100462 3.634178 1.592138
v 0.100462 4.020550 -1.590980
v -3.743569 0.000000 1.722184
v -3.317798 0.000000 1.722184
v -3.743569 0.000000 1.296414
v -3.317798 0.000000 1.296414
v -3.743569 3.119354 1.722184
v -3.317798 3.119354 1.722184
v -3.743569 3.119354 1.296414
v -3.317798 3.119354 1.296414
v 6.336396 0.000000 -1.323366
v 6.762166 0.000000 -1.323366
v 6.336396 0.000000 -1.749136
v 6.762166 0.000000 -1.749136
v 6.336396 3.119354 -1.323366
v 6.762166 3.119354 -1.323366
v 6.336396 3.119354 -1.749136
v 6.762166 3.119354 -1.749136
v 6.336396 0.000000 1.722184
v 6.762166 0.000000 1.722184
v 6.336396 0.000000 1.296414
v 6.762166 0.000000 1.296414
v 6.336396 3.119354 1.722184
v 6.762166 3.119354 1.722184
v 6.336396 3.119354 1.296414
v 6.762166 3.119354 1.296414
v -3.743569 0.000000 -1.323366
v -3.317798 0.000000 -1.323366
v -3.743569 0.000000 -1.749136
v -3.317798 0.000000 -1.749136
v -3.743569 3.119354 -1.323366
v -3.317798 3.119354 -1.323366
v -3.743569 3.119354 -1.749136
v -3.317798 3.119354 -1.749136
v -0.759757 0.000000 1.722184
v -0.333987 0.000000 1.722184
v -0.759757 0.000000 1.296414
v -0.333987 0.000000 1.296414
v -0.759757 3.119354 1.722184
v -0.333987 3.119354 1.722184
v -0.759757 3.119354 1.296414
v -0.333987 3.119354 1.296414
v 3.057456 0.000000 1.722184
v 3.483227 0.000000 1.722184
v 3.057456 0.000000 1.296414
v 3.483227 0.000000 1.296414
v 3.057456 3.119354 1.722184
v 3.483227 3.119354 1.722184
v 3.057456 3.119354 1.296414
v 3.483227 3.119354 1.296414
v 5.597525 3.223129 1.326245
v 6.411937 3.223129 -0.809120
v 4.111485 3.223129 0.759481
v 4.925898 3.223129 -1.375884
v 5.597525 3.285465 1.326245
v 6.411937 3.285465 -0.809120
v 4.111485 3.285465 0.759481
v 4.925898 3.285465 -1.375884
vn -0.0000 -1.0000 -0.0000
vn -0.0000 1.0000 -0.0000
vn 1.0000 -0.0000 -0.0000
vn -1.0000 -0.0000 -0.0000
vn -0.0000 -0.0000 -1.0000
vn -0.0000 -0.0000 1.0000
vn -0.0000 0.0036 1.0000
vn -0.0000 0.0034 -1.0000
vn -0.0587 0.9914 0.1173
vn -0.0000 0.9928 0.1200
vn 0.0586 0.9914 0.1173
vn 0.0587 0.9914 0.1173
vn -0.0586 0.9914 0.1173
vn 0.3564 -0.0000 -0.9344
vn -0.3564 -0.0000 0.9344
vn -0.9344 -0.0000 -0.3564
vn 0.9344 -0.0000 0.3564
vt 0.835499 0.961951
vt 0.878172 0.148235
vt 0.367901 0.480908
vt 0.835499 0.480908
vt 0.688100 0.813147
vt 0.367901 0.000002
vt 0.824260 0.961951
vt 0.889408 0.148235
vt 0.516137 0.000002
vt 0.824260 0.480908
vt 0.676864 0.813147
vt 0.516137 0.480908
vt 0.846730 0.480908
vt 0.878172 0.000000
vt 0.516137 0.480906
vt 0.846730 0.961951
vt 0.688100 0.664911
vt 0.516137 0.000000
vt 0.835499 0.480908
vt 0.889408 0.000000
vt 0.664372 0.000000
vt 0.835499 0.961951
vt 0.676864 0.664911
vt 0.664372 0.480906
vt 0.184015 0.519240
vt 0.879881 0.183952
vt 0.846730 1.000000
vt 0.184015 0.000000
vt 0.888874 0.480908
vt 0.846730 0.480908
vt 0.000000 0.519240
vt 0.879881 0.367915
vt 0.855297 0.480908
vt 0.000000 0.000000
vt 0.888874 0.664871
vt 0.855297 1.000000
vt 0.367901 0.000000
vt 0.888449 0.183952
vt 0.855297 1.000000
vt 0.367901 0.519240
vt 0.880307 0.480908
vt 0.855297 0.480908
vt 0.184015 0.000000
vt 0.888449 0.367915
vt 0.863864 0.480908
vt 0.184015 0.519240
vt 0.880307 0.664871
vt 0.863864 1.000000
vt 0.340781 0.703243
vt 0.747209 0.664859
vt 0.818133 0.183951
vt 0.340781 0.519240
vt 0.747209 0.664859
vt 0.818133 0.000000
vt 0.170671 0.703243
vt 0.747209 0.834922
vt 0.708683 0.480908
vt 0.170671 0.519240
vt 0.747209 0.834922
vt 0.708683 0.664860
vt 0.818133 0.167412
vt 0.880307 0.648274
vt 0.550180 0.664967
vt 0.818133 0.334825
vt 0.585306 0.664967
vt 0.880307 0.480909
vt 0.664372 0.167412
vt 0.550180 0.818792
vt 0.515055 0.664911
vt 0.664372 0.334825
vt 0.585306 0.818792
vt 0.515055 0.832276
vt 0.712083 0.480908
vt 0.750609 0.834922
vt 0.821532 0.183951
vt 0.750609 0.664859
vt 0.821533 0.000000
vt 0.743809 0.664859
vt 0.712083 0.664859
vt 0.743809 0.834922
vt 0.747209 0.480908
vt 0.000000 0.519239
vt 0.785734 0.834922
vt 0.837006 0.183952
vt 0.170671 0.519239
vt 0.766082 0.664915
vt 0.837006 0.000001
vt 0.170671 0.703243
vt 0.728335 0.664915
vt 0.747209 0.664859
vt 0.000000 0.703243
vt 0.708683 0.834922
vt 0.008115 0.527529
vt 0.515055 0.818792
vt 0.479929 0.664912
vt 0.863865 0.648273
vt 0.162631 0.527529
vt 0.533738 0.664911
vt 0.601748 0.664912
vt 0.863865 0.480908
vt 0.162631 0.694942
vt 0.620432 0.818792
vt 0.008115 0.694942
vt 0.479929 0.832277
vt 0.708683 0.480908
vt 0.824260 0.650970
vt 0.340781 0.519240
vt 0.708683 0.664911
vt 0.824260 0.650970
vt 0.340781 0.703191
vt 0.538572 0.480908
vt 0.824260 0.821033
vt 0.747209 0.664860
vt 0.538572 0.664911
vt 0.824260 0.480908
vt 0.747209 0.480908
vt 0.818133 0.167412
vt 0.880307 0.648275
vt 0.620432 0.664967
vt 0.818133 0.000000
vt 0.585306 0.664967
vt 0.880307 0.815640
vt 0.664372 0.167412
vt 0.620432 0.818792
vt 0.444803 0.664912
vt 0.664372 0.000000
vt 0.585306 0.818792
vt 0.444803 0.832277
vt 0.750609 0.664859
vt 0.820860 0.821033
vt 0.344181 0.519240
vt 0.820860 0.650970
vt 0.344181 0.703191
vt 0.820860 0.650970
vt 0.750609 0.480908
vt 0.820860 0.480908
vt 0.785734 0.664859
vt 0.367901 0.664911
vt 0.785734 0.821033
vt 0.359655 0.519241
vt 0.538572 0.664911
vt 0.805386 0.651026
vt 0.359655 0.703192
vt 0.538572 0.480908
vt 0.805386 0.650914
vt 0.367901 0.480908
vt 0.785734 0.480908
vt 0.376017 0.656622
vt 0.655558 0.818792
vt 0.479929 0.664911
vt 0.863865 0.648274
vt 0.530532 0.656622
vt 0.636874 0.664911
vt 0.568864 0.664911
vt 0.863865 0.815639
vt 0.530532 0.489209
vt 0.550180 0.818792
vt 0.376017 0.489209
vt 0.479929 0.832276
vt 0.664372 0.465928
vt 0.102915 0.854084
vt 0.294168 0.854084
vt 0.684961 0.465928
vt 0.082332 0.854084
vt 0.294168 0.854084
vt 0.664372 0.445339
vt 0.314751 0.854084
vt 0.655558 0.815752
vt 0.684961 0.445339
vt 0.273585 0.854084
vt 0.676141 0.815753
vt 0.761855 0.376002
vt 0.102915 0.703243
vt 0.294168 0.703243
vt 0.761855 0.396591
vt 0.082332 0.703243
vt 0.294168 0.703243
vt 0.741280 0.376002
vt 0.314751 0.703243
vt 0.655558 0.664911
vt 0.741280 0.396591
vt 0.273585 0.703243
vt 0.676141 0.664912
vt 0.726138 0.445339
vt 0.859299 0.334793
vt 0.705549 0.445339
vt 0.838716 0.334793
vt 0.361364 0.854033
vt 0.726138 0.465928
vt 0.837006 0.150841
vt 0.879881 0.334793
vt 0.705549 0.465928
vt 0.857589 0.150841
vt 0.340782 0.854033
vt 0.782429 0.376002
vt 0.859299 0.183952
vt 0.782429 0.396591
vt 0.838716 0.183952
vt 0.361364 0.703192
vt 0.761855 0.376002
vt 0.837006 0.000000
vt 0.879881 0.183952
vt 0.761855 0.396591
vt 0.857589 0.000000
vt 0.340782 0.703192
vt 0.761869 0.376002
vt 0.335334 0.854084
vt 0.102915 0.854084
vt 0.761869 0.355414
vt 0.314751 0.854084
vt 0.878172 0.150841
vt 0.741280 0.376002
vt 0.000000 0.854084
vt 0.123498 0.854084
vt 0.741280 0.355414
vt 0.020583 0.854084
vt 0.857589 0.150841
vt 0.782429 0.396591
vt 0.335334 0.703243
vt 0.102915 0.703243
vt 0.782429 0.417180
vt 0.314751 0.703243
vt 0.878172 0.000000
vt 0.761855 0.396591
vt 0.000000 0.703243
vt 0.123498 0.703243
vt 0.761855 0.417180
vt 0.020583 0.703243
vt 0.857589 0.000000
vt 0.746727 0.465928
vt 0.191254 0.854084
vt 0.708683 0.815753
vt 0.746727 0.445339
vt 0.232420 0.854084
vt 0.688100 0.815753
vt 0.726138 0.465928
vt 0.211837 0.854084
vt 0.253002 0.854084
vt 0.726138 0.445339
vt 0.211837 0.854084
vt 0.273585 0.854084
vt 0.761855 0.396591
vt 0.191254 0.703243
vt 0.708683 0.664912
vt 0.761855 0.417180
vt 0.232420 0.703243
vt 0.688100 0.664911
vt 0.741280 0.396591
vt 0.211837 0.703243
vt 0.253002 0.703243
vt 0.741280 0.417180
vt 0.211837 0.703243
vt 0.273585 0.703243
vt 0.705549 0.465928
vt 0.041166 0.854084
vt 0.144081 0.854084
vt 0.705549 0.445339
vt 0.020583 0.854084
vt 0.191254 0.854084
vt 0.684961 0.465928
vt 0.041166 0.854084
vt 0.164663 0.854084
vt 0.684961 0.445339
vt 0.061749 0.854084
vt 0.170671 0.854084
vt 0.761855 0.417180
vt 0.041166 0.703243
vt 0.144081 0.703243
vt 0.761855 0.437769
vt 0.020583 0.703243
vt 0.191254 0.703243
vt 0.741280 0.417180
vt 0.041166 0.703243
vt 0.164663 0.703243
vt 0.741280 0.437769
vt 0.061749 0.703243
vt 0.170671 0.703243
vt 0.761869 0.334825
vt 0.082332 0.854084
vt 0.123498 0.854084
vt 0.741281 0.334825
vt 0.061749 0.854084
vt 0.838716 0.334793
vt 0.761869 0.355414
vt 0.253003 0.703243
vt 0.144081 0.854084
vt 0.741281 0.355414
vt 0.232420 0.703243
vt 0.818133 0.334793
vt 0.767301 0.445339
vt 0.082332 0.703243
vt 0.123498 0.703243
vt 0.767301 0.465928
vt 0.061749 0.703243
vt 0.838716 0.183952
vt 0.746727 0.445339
vt 0.253003 0.854084
vt 0.144081 0.703243
vt 0.746727 0.465928
vt 0.232420 0.854084
vt 0.818133 0.183952
vt 0.664372 0.334825
vt 0.365684 0.695902
vt 0.362669 0.623408
vt 0.664372 0.445339
vt 0.362669 0.623409
vt 0.362669 0.519239
vt 0.741280 0.334825
vt 0.365684 0.623409
vt 0.359655 0.519239
vt 0.741280 0.445339
vt 0.362669 0.695902
vt 0.359655 0.623408
vt 0.444803 0.664947
vt 0.362669 0.695901
vt 0.365684 0.623408
vt 0.444803 0.775394
vt 0.359655 0.623408
vt 0.365684 0.519239
vt 0.367901 0.664911
vt 0.362669 0.623408
vt 0.362669 0.519239
vt 0.367901 0.775358
vt 0.359655 0.695901
vt 0.362669 0.623408
s 0
usemtl Wood
f 1/1/1 3/7/1 4/10/1 2/4/1
f 5/13/2 6/16/2 8/22/2 7/19/2
f 2/5/3 4/11/3 8/23/3 6/17/3
f 3/8/4 1/2/4 5/14/4 7/20/4
f 4/12/5 3/9/5 7/21/5 8/24/5
f 1/3/6 2/6/6 6/18/6 5/15/6
f 9/25/1 11/31/1 12/34/1 10/28/1
f 13/37/2 14/40/2 16/46/2 15/43/2
f 10/29/4 12/35/4 16/47/4 14/41/4
f 11/32/3 9/26/3 13/38/3 15/44/3
f 12/36/6 11/33/6 15/45/6 16/48/6
f 9/27/5 10/30/5 14/42/5 13/39/5
f 17/49/1 19/55/1 20/58/1 18/52/1
f 21/61/2 22/64/2 24/70/2 23/67/2
f 18/53/3 20/59/3 28/80/3 27/78/3
f 19/56/4 17/50/4 26/76/4 25/74/4
f 20/60/5 19/57/5 25/73/5 28/79/5
f 17/51/6 18/54/6 27/77/6 26/75/6
f 24/71/4 22/65/4 35/99/4 36/102/4
f 26/75/7 27/77/7 31/87/7 30/84/7
f 28/79/5 25/73/5 29/81/5 32/90/5
f 22/66/8 21/62/8 34/96/8 35/100/8
f 34/97/9 33/93/9 29/82/9 30/85/9
f 35/101/10 34/97/10 30/85/10 31/88/10
f 36/103/11 35/101/11 31/88/11 32/91/11
f 33/93/2 36/103/2 32/91/2 29/82/2
f 21/63/3 23/68/3 33/94/3 34/98/3
f 27/78/3 28/80/3 32/92/3 31/89/3
f 23/69/6 24/72/6 36/104/6 33/95/6
f 25/74/4 26/76/4 30/86/4 29/83/4
f 37/105/1 38/108/1 40/114/1 39/111/1
f 41/117/2 43/123/2 44/126/2 42/120/2
f 38/109/4 47/134/4 48/136/4 40/115/4
f 39/112/3 45/130/3 46/132/3 37/106/3
f 40/116/5 48/135/5 45/129/5 39/113/5
f 37/107/6 46/131/6 47/133/6 38/110/6
f 44/127/3 56/157/3 55/154/3 42/121/3
f 46/131/7 50/140/7 51/143/7 47/133/7
f 48/135/5 52/147/5 49/137/5 45/129/5
f 42/122/8 55/155/8 54/151/8 41/118/8
f 54/152/12 50/141/12 49/138/12 53/148/12
f 55/156/10 51/144/10 50/141/10 54/152/10
f 56/158/13 52/146/13 51/144/13 55/156/13
f 53/148/2 49/138/2 52/146/2 56/158/2
f 41/119/4 54/153/4 53/149/4 43/124/4
f 47/134/4 51/145/4 52/147/4 48/136/4
f 43/125/6 53/150/6 56/159/6 44/128/6
f 45/130/3 49/139/3 50/142/3 46/132/3
f 57/160/1 59/166/1 60/169/1 58/163/1
f 61/172/2 62/175/2 64/181/2 63/178/2
f 57/161/6 58/164/6 62/176/6 61/173/6
f 58/165/3 60/170/3 64/182/3 62/177/3
f 59/167/4 57/162/4 61/174/4 63/179/4
f 60/171/5 59/168/5 63/180/5 64/183/5
f 65/184/1 67/189/1 68/192/1 66/186/1
f 69/195/2 70/197/2 72/203/2 71/200/2
f 68/193/5 67/190/5 71/201/5 72/204/5
f 65/185/6 66/187/6 70/198/6 69/196/6
f 66/188/3 68/194/3 72/205/3 70/199/3
f 67/191/4 65/185/4 69/196/4 71/202/4
f 73/206/1 75/212/1 76/215/1 74/209/1
f 77/218/2 78/221/2 80/227/2 79/224/2
f 76/216/5 75/213/5 79/225/5 80/228/5
f 73/207/6 74/210/6 78/222/6 77/219/6
f 74/211/3 76/217/3 80/229/3 78/223/3
f 75/214/4 73/208/4 77/220/4 79/226/4
f 81/230/1 83/236/1 84/239/1 82/233/1
f 85/242/2 86/245/2 88/251/2 87/248/2
f 82/234/3 84/240/3 88/252/3 86/246/3
f 83/237/4 81/231/4 85/243/4 87/249/4
f 84/241/5 83/238/5 87/250/5 88/253/5
f 81/232/6 82/235/6 86/247/6 85/244/6
f 89/254/1 91/260/1 92/263/1 90/257/1
f 93/266/2 94/269/2 96/275/2 95/272/2
f 92/264/5 91/261/5 95/273/5 96/276/5
f 89/255/6 90/258/6 94/270/6 93/267/6
f 90/259/3 92/265/3 96/277/3 94/271/3
f 91/262/4 89/256/4 93/268/4 95/274/4
f 97/278/1 99/284/1 100/287/1 98/281/1
f 101/290/2 102/293/2 104/299/2 103/296/2
f 100/288/5 99/285/5 103/297/5 104/300/5
f 97/279/6 98/282/6 102/294/6 101/291/6
f 98/283/3 100/289/3 104/301/3 102/295/3
f 99/286/4 97/280/4 101/292/4 103/298/4
f 105/302/1 107/308/1 108/311/1 106/305/1
f 109/314/2 110/317/2 112/323/2 111/320/2
f 106/306/14 108/312/14 112/324/14 110/318/14
f 107/309/15 105/303/15 109/315/15 111/321/15
f 108/313/16 107/310/16 111/322/16 112/325/16
f 105/304/17 106/307/17 110/319/17 109/316/17
