# Blender 3.5.0
# www.blender.org
mtllib Stove.mtl
o Plane.003
v -3.453843 0.018259 1.571603
v 6.494003 0.018259 1.571603
v -3.453843 0.018259 1.339188
v 6.494003 0.018259 1.339188
v -3.453843 3.083724 1.571603
v 6.494003 3.083724 1.571603
v -3.453843 3.083724 1.339188
v 6.494003 3.083724 1.339188
v -3.884332 3.223129 1.902691
v 6.853405 3.223129 1.902691
v -3.884332 3.223129 -1.902691
v 6.853405 3.223129 -1.902691
v -3.884332 3.045958 1.902691
v 6.853405 3.045958 1.902691
v -3.884332 3.045958 -1.902691
v 6.853405 3.045958 -1.902691
v -3.733935 3.223849 1.758922
v 0.071207 3.223849 1.758922
v -3.733935 3.223849 -1.758922
v 0.071207 3.223849 -1.758922
v -3.562507 3.294158 1.590980
v -0.100462 3.294158 1.590980
v -3.562507 3.294158 -1.590980
v -0.100462 3.294158 -1.590980
v -3.733935 3.294158 -1.758922
v -3.733935 3.294158 1.758922
v 0.071207 3.294158 1.758922
v 0.071207 3.294158 -1.758922
v -3.733935 4.020550 -1.758922
v -3.733935 3.614151 1.757765
v 0.071207 3.614151 1.757765
v 0.071207 4.020550 -1.758922
v -3.562507 4.020550 -1.590980
v -3.562507 3.634178 1.592137
v -0.100462 3.634178 1.592137
v -0.100462 4.020550 -1.590980
v 3.733935 3.223849 1.758923
v -0.071207 3.223849 1.758923
v 3.733935 3.223849 -1.758923
v -0.071207 3.223849 -1.758923
v 3.562508 3.294158 1.590980
v 0.100462 3.294158 1.590980
v 3.562508 3.294158 -1.590980
v 0.100462 3.294158 -1.590980
v 3.733935 3.294158 -1.758923
v 3.733935 3.294158 1.758923
v -0.071207 3.294158 1.758923
v -0.071207 3.294158 -1.758923
v 3.733935 4.020550 -1.758923
v 3.733935 3.614151 1.757765
v -0.071207 3.614151 1.757765
v -0.071207 4.020550 -1.758923
v 3.562508 4.020550 -1.590980
v 3.562508 3.634178 1.592138
v 0.100462 3.634178 1.592138
v 0.100462 4.020550 -1.590980
v -3.743569 0.000000 1.722184
v -3.317798 0.000000 1.722184
v -3.743569 0.000000 1.296414
v -3.317798 0.000000 1.296414
v -3.743569 3.119354 1.722184
v -3.317798 3.119354 1.722184
v -3.743569 3.119354 1.296414
v -3.317798 3.119354 1.296414
v 6.336396 0.000000 -1.323366
v 6.762166 0.000000 -1.323366
v 6.336396 0.000000 -1.749136
v 6.762166 0.000000 -1.749136
v 6.336396 3.119354 -1.323366
v 6.762166 3.119354 -1.323366
v 6.336396 3.119354 -1.749136
v 6.762166 3.119354 -1.749136
v 6.336396 0.000000 1.722184
v 6.762166 0.000000 1.722184
v 6.336396 0.000000 1.296414
v 6.762166 0.000000 1.296414
v 6.336396 3.119354 1.722184
v 6.762166 3.119354 1.722184
v 6.336396 3.119354 1.296414
v 6.762166 3.119354 1.296414
v -3.743569 0.000000 -1.323366
v -3.317798 0.000000 -1.323366
v -3.743569 0.000000 -1.749136
v -3.317798 0.000000 -1.749136
v -3.743569 3.119354 -1.323366
v -3.317798 3.119354 -1.323366
v -3.743569 3.119354 -1.749136
v -3.317798 3.119354 -1.749136
v -0.759757 0.000000 1.722184
v -0.333987 0.000000 1.722184
v -0.759757 0.000000 1.296414
v -0.333987 0.000000 1.296414
v -0.759757 3.119354 1.722184
v -0.333987 3.119354 1.722184
v -0.759757 3.119354 1.296414
v -0.333987 3.119354 1.296414
v 3.057456 0.000000 1.722184
v 3.483227 0.000000 1.722184
v 3.057456 0.000000 1.296414
v 3.483227 0.000000 1.296414
v 3.057456 3.119354 1.722184
v 3.483227 3.119354 1.722184
v 3.057456 3.119354 1.296414
v 3.483227 3.119354 1.296414
v 5.597525 3.223129 1.326245
v 6.411937 3.223129 -0.809120
v 4.111485 3.223129 0.759481
v 4.925898 3.223129 -1.375884
v 5.597525 3.285465 1.326245
v 6.411937 3.285465 -0.809120
v 4.111485 3.285465 0.759481
v 4.925898 3.285465 -1.375884
vn -0.0000 -1.0000 -0.0000
vn -0.0000 1.0000 -0.0000
vn 1.0000 -0.0000 -0.0000
vn -1.0000 -0.0000 -0.0000
vn -0.0000 -0.0000 -1.0000
vn -0.0000 -0.0000 1.0000
vn -0.0000 0.0036 1.0000
vn -0.0000 0.0034 -1.0000
vn -0.0587 0.9914 0.1173
vn -0.0000 0.9928 0.1200
vn 0.0586 0.9914 0.1173
vn 0.0587 0.9914 0.1173
vn -0.0586 0.9914 0.1173
vn 0.3564 -0.0000 -0.9344
vn -0.3564 -0.0000 0.9344
vn -0.9344 -0.0000 -0.3564
vn 0.9344 -0.0000 0.3564
vt 0.351777 0.766150
vt 0.774818 0.256462
vt 0.672122 0.571272
vt 0.454473 0.766150
vt 0.672122 0.099056
vt 0.774819 0.571272
vt 0.351777 0.663454
vt 0.672122 0.256462
vt 0.774819 0.413868
vt 0.454473 0.663454
vt 0.774818 0.099056
vt 0.672122 0.413868
vt 0.454473 0.766150
vt 0.774818 0.413868
vt 0.672122 0.728676
vt 0.454473 0.663454
vt 0.672122 0.256462
vt 0.774819 0.728676
vt 0.557168 0.766150
vt 0.672122 0.413868
vt 0.774819 0.571272
vt 0.557168 0.663454
vt 0.774818 0.256462
vt 0.672122 0.571272
vt -0.234704 1.000000
vt -0.234704 0.000000
vt 1.234704 1.000000
vt 1.234704 0.000000
vt -0.234704 1.000000
vt -0.234704 0.000000
vt 1.234704 1.000000
vt 1.234704 0.000000
vt 0.013258 1.277209
vt -0.026025 1.277200
vt 0.794862 0.363771
vt 0.052540 1.277209
vt -0.148752 1.277200
vt 0.794862 0.403053
vt 0.013258 -0.277209
vt -0.026025 -0.277209
vt 0.596450 0.663454
vt 0.052540 -0.277209
vt -0.148752 -0.277209
vt 0.557168 0.663454
vt 0.351777 1.128778
vt 0.792280 0.673482
vt 0.188234 1.129170
vt 0.316036 1.128778
vt 0.242997 -0.276698
vt 0.792280 0.637742
vt 0.351777 -0.277209
vt 0.168403 -0.276683
vt 0.774818 0.099056
vt 0.316036 -0.277209
vt 0.242997 1.129295
vt 0.810558 0.099056
vt 0.596450 0.667064
vt -0.029635 -0.277209
vt 0.791251 0.363771
vt -0.029635 1.277200
vt 0.791251 0.403053
vt -0.145142 1.277200
vt 0.557168 0.667064
vt -0.145142 -0.277209
vt 0.596450 0.704363
vt 0.131104 -0.277209
vt -0.066934 -0.277209
vt 0.774818 0.363771
vt 0.131104 1.276776
vt -0.046066 1.276688
vt 0.774818 0.403053
vt 0.091822 1.276776
vt -0.128711 1.276688
vt 0.557168 0.704363
vt 0.091822 -0.277209
vt -0.107843 -0.277209
vt 0.129335 -0.203002
vt 0.205698 -0.277209
vt 0.774818 0.136354
vt 0.774819 0.673482
vt 0.129335 1.203587
vt 0.205698 1.129435
vt 0.260457 -0.277209
vt 0.774819 0.637742
vt 0.093594 1.203587
vt 0.280296 1.129295
vt 0.093594 -0.203002
vt 0.810558 0.136354
vt 0.013257 1.277209
vt -0.189661 1.277200
vt 0.794862 0.363771
vt -0.026025 1.277209
vt -0.066934 1.277200
vt 0.794862 0.324488
vt 0.013258 -0.277209
vt -0.189661 -0.277209
vt 0.596450 0.663454
vt -0.026025 -0.277209
vt -0.066934 -0.277209
vt 0.635732 0.663454
vt 0.280296 1.128778
vt 0.792280 0.602001
vt 0.168403 1.128784
vt 0.316036 1.128778
vt 0.242997 -0.276698
vt 0.792280 0.637742
vt 0.280296 -0.277209
vt 0.168403 -0.277209
vt 0.671473 0.663454
vt 0.316036 -0.277209
vt 0.242997 1.129296
vt 0.635732 0.663454
vt 0.596450 0.667064
vt -0.186051 -0.277209
vt 0.791251 0.363771
vt -0.186051 1.277200
vt 0.791251 0.324488
vt -0.070544 1.277200
vt 0.635732 0.667064
vt -0.070544 -0.277209
vt 0.596450 0.704363
vt 0.052540 -0.277209
vt -0.148752 -0.277209
vt 0.774818 0.363771
vt 0.052540 1.276776
vt -0.169620 1.276688
vt 0.774818 0.324488
vt 0.091822 1.276776
vt -0.086975 1.276688
vt 0.635732 0.704363
vt 0.091822 -0.277209
vt -0.107843 -0.277209
vt 0.054310 -0.203002
vt 0.131104 -0.277209
vt 0.671473 0.700752
vt 0.774819 0.602001
vt 0.054310 1.203587
vt 0.150944 1.129296
vt 0.225538 -0.277209
vt 0.774819 0.637742
vt 0.090050 1.203587
vt 0.205698 1.129296
vt 0.090050 -0.203002
vt 0.635732 0.700752
vt 0.774818 0.324488
vt 0.809982 0.413868
vt 0.672122 0.099056
vt 0.779213 0.324488
vt 0.814378 0.413868
vt 0.351777 0.287189
vt 0.774818 0.136354
vt 0.672122 -0.089077
vt 0.805586 0.136354
vt 0.779213 0.136354
vt 0.351777 0.099056
vt 0.801190 0.136354
vt 0.801191 0.324486
vt 0.809982 0.574039
vt 0.511950 0.099056
vt 0.796795 0.324486
vt 0.814378 0.574039
vt 0.511950 0.287189
vt 0.801191 0.136354
vt 0.511950 -0.089077
vt 0.805586 0.296526
vt 0.796795 0.136354
vt 0.511950 0.099056
vt 0.801190 0.296526
vt 0.783610 0.602001
vt 0.805587 0.574039
vt 0.672122 0.663454
vt 0.788005 0.602001
vt 0.809982 0.574039
vt 0.832295 -0.089077
vt 0.783610 0.413868
vt 0.818773 0.413868
vt 0.672122 0.475321
vt 0.788005 0.413868
vt 0.814377 0.413868
vt 0.832295 0.099056
vt 0.788005 0.413868
vt 0.805587 0.734210
vt 0.511950 0.663454
vt 0.792401 0.413868
vt 0.809982 0.734210
vt 0.672122 -0.089077
vt 0.788005 0.602000
vt 0.818773 0.574039
vt 0.511950 0.475321
vt 0.792400 0.602000
vt 0.814377 0.574039
vt 0.672122 0.099056
vt 0.783609 0.324488
vt 0.809982 0.574039
vt 0.672122 0.475321
vt 0.788004 0.324488
vt 0.814378 0.574039
vt 0.672122 -0.277209
vt 0.783609 0.136354
vt 0.818772 0.136354
vt 0.672122 0.287189
vt 0.788004 0.136354
vt 0.814377 0.136354
vt 0.672122 -0.089077
vt 0.796796 0.602000
vt 0.809982 0.734210
vt 0.511950 0.475321
vt 0.792400 0.602000
vt 0.814378 0.734210
vt 0.511950 -0.277209
vt 0.796796 0.413868
vt 0.818772 0.296526
vt 0.511950 0.287189
vt 0.792400 0.413868
vt 0.814377 0.296526
vt 0.511950 -0.089077
vt 0.779214 0.602001
vt 0.511950 0.663454
vt 0.809981 0.136354
vt 0.783610 0.602001
vt 0.832295 -0.277209
vt 0.814377 0.136354
vt 0.779214 0.413868
vt 0.511950 0.475321
vt 0.805587 0.413868
vt 0.783610 0.413868
vt 0.832295 -0.089077
vt 0.801191 0.413868
vt 0.788004 0.136354
vt 0.351777 0.663454
vt 0.809981 0.296526
vt 0.792400 0.136354
vt 0.672122 -0.277209
vt 0.814377 0.296526
vt 0.788004 0.324486
vt 0.351777 0.475321
vt 0.805587 0.574039
vt 0.792400 0.324486
vt 0.672122 -0.089077
vt 0.801191 0.574039
vt 0.774819 0.602001
vt 0.801191 0.574039
vt 0.511950 0.475322
vt 0.779214 0.602001
vt 0.805587 0.574039
vt 0.351777 -0.089077
vt 0.774819 0.413868
vt 0.809981 0.136354
vt 0.511950 0.287189
vt 0.779214 0.413868
vt 0.805586 0.136354
vt 0.351777 -0.277209
vt 0.796795 0.324486
vt 0.801191 0.734210
vt 0.351777 0.475322
vt 0.792400 0.324486
vt 0.805587 0.734210
vt 0.511950 -0.089077
vt 0.796795 0.136354
vt 0.809981 0.296526
vt 0.351777 0.287189
vt 0.792400 0.136354
vt 0.805586 0.296526
vt 0.511950 -0.277209
vt 0.779214 0.324488
vt 0.818772 0.136354
vt 0.351777 -0.089077
vt 0.783609 0.324488
vt 0.823168 0.136354
vt 0.672122 0.099056
vt 0.779214 0.136354
vt 0.809982 0.413868
vt 0.351777 0.099056
vt 0.783609 0.136354
vt 0.805587 0.413868
vt 0.672122 0.287189
vt 0.801191 0.602000
vt 0.818772 0.296526
vt 0.511950 -0.089077
vt 0.796796 0.602000
vt 0.823168 0.296526
vt 0.511950 0.099056
vt 0.801191 0.413868
vt 0.809982 0.574039
vt 0.511950 0.099056
vt 0.796796 0.413868
vt 0.805587 0.574039
vt 0.511950 0.287189
vt 0.849867 0.916662
vt 0.870640 0.916788
vt 0.873841 -0.277209
vt 0.849867 -0.026922
vt 0.873841 0.666302
vt 0.832295 0.666375
vt 0.870640 0.666302
vt 0.832295 -0.277209
vt 0.873841 0.916788
vt 0.870640 -0.277209
vt 0.867439 -0.277209
vt 0.867439 0.916788
vt 0.870640 -0.277209
vt 0.867439 0.666365
vt 0.870640 0.666302
vt 0.849867 -0.026924
vt 0.867439 0.666302
vt 0.849867 0.916650
vt 0.870640 0.916788
vt 0.867439 -0.277209
s 0
usemtl Wood
f 1/1/1 3/7/1 4/10/1 2/4/1
f 5/13/2 6/16/2 8/22/2 7/19/2
f 2/5/3 4/11/3 8/23/3 6/17/3
f 3/8/4 1/2/4 5/14/4 7/20/4
f 4/12/5 3/9/5 7/21/5 8/24/5
f 1/3/6 2/6/6 6/18/6 5/15/6
f 17/33/1 19/39/1 20/42/1 18/36/1
f 21/45/2 22/48/2 24/54/2 23/51/2
f 18/37/3 20/43/3 28/64/3 27/62/3
f 19/40/4 17/34/4 26/60/4 25/58/4
f 20/44/5 19/41/5 25/57/5 28/63/5
f 17/35/6 18/38/6 27/61/6 26/59/6
f 24/55/4 22/49/4 35/83/4 36/86/4
f 26/59/7 27/61/7 31/71/7 30/68/7
f 28/63/5 25/57/5 29/65/5 32/74/5
f 22/50/8 21/46/8 34/80/8 35/84/8
f 34/81/9 33/77/9 29/66/9 30/69/9
f 35/85/10 34/81/10 30/69/10 31/72/10
f 36/87/11 35/85/11 31/72/11 32/75/11
f 33/77/2 36/87/2 32/75/2 29/66/2
f 21/47/3 23/52/3 33/78/3 34/82/3
f 27/62/3 28/64/3 32/76/3 31/73/3
f 23/53/6 24/56/6 36/88/6 33/79/6
f 25/58/4 26/60/4 30/70/4 29/67/4
f 37/89/1 38/92/1 40/98/1 39/95/1
f 41/101/2 43/107/2 44/110/2 42/104/2
f 38/93/4 47/118/4 48/120/4 40/99/4
f 39/96/3 45/114/3 46/116/3 37/90/3
f 40/100/5 48/119/5 45/113/5 39/97/5
f 37/91/6 46/115/6 47/117/6 38/94/6
f 44/111/3 56/142/3 55/139/3 42/105/3
f 46/115/7 50/124/7 51/127/7 47/117/7
f 48/119/5 52/130/5 49/121/5 45/113/5
f 42/106/8 55/140/8 54/136/8 41/102/8
f 54/137/12 50/125/12 49/122/12 53/133/12
f 55/141/10 51/128/10 50/125/10 54/137/10
f 56/143/13 52/131/13 51/128/13 55/141/13
f 53/133/2 49/122/2 52/131/2 56/143/2
f 41/103/4 54/138/4 53/134/4 43/108/4
f 47/118/4 51/129/4 52/132/4 48/120/4
f 43/109/6 53/135/6 56/144/6 44/112/6
f 45/114/3 49/123/3 50/126/3 46/116/3
f 57/145/1 59/151/1 60/154/1 58/148/1
f 61/157/2 62/160/2 64/166/2 63/163/2
f 57/146/6 58/149/6 62/161/6 61/158/6
f 58/150/3 60/155/3 64/167/3 62/162/3
f 59/152/4 57/147/4 61/159/4 63/164/4
f 60/156/5 59/153/5 63/165/5 64/168/5
f 65/169/1 67/175/1 68/178/1 66/172/1
f 69/181/2 70/184/2 72/190/2 71/187/2
f 68/179/5 67/176/5 71/188/5 72/191/5
f 65/170/6 66/173/6 70/185/6 69/182/6
f 66/174/3 68/180/3 72/192/3 70/186/3
f 67/177/4 65/171/4 69/183/4 71/189/4
f 73/193/1 75/199/1 76/202/1 74/196/1
f 77/205/2 78/208/2 80/214/2 79/211/2
f 76/203/5 75/200/5 79/212/5 80/215/5
f 73/194/6 74/197/6 78/209/6 77/206/6
f 74/198/3 76/204/3 80/216/3 78/210/3
f 75/201/4 73/195/4 77/207/4 79/213/4
f 81/217/1 83/223/1 84/226/1 82/220/1
f 85/229/2 86/232/2 88/238/2 87/235/2
f 82/221/3 84/227/3 88/239/3 86/233/3
f 83/224/4 81/218/4 85/230/4 87/236/4
f 84/228/5 83/225/5 87/237/5 88/240/5
f 81/219/6 82/222/6 86/234/6 85/231/6
f 89/241/1 91/247/1 92/250/1 90/244/1
f 93/253/2 94/256/2 96/262/2 95/259/2
f 92/251/5 91/248/5 95/260/5 96/263/5
f 89/242/6 90/245/6 94/257/6 93/254/6
f 90/246/3 92/252/3 96/264/3 94/258/3
f 91/249/4 89/243/4 93/255/4 95/261/4
f 97/265/1 99/271/1 100/274/1 98/268/1
f 101/277/2 102/280/2 104/286/2 103/283/2
f 100/275/5 99/272/5 103/284/5 104/287/5
f 97/266/6 98/269/6 102/281/6 101/278/6
f 98/270/3 100/276/3 104/288/3 102/282/3
f 99/273/4 97/267/4 101/279/4 103/285/4
f 105/289/1 107/294/1 108/296/1 106/292/1
f 109/299/2 110/302/2 112/306/2 111/304/2
f 106/293/14 108/297/14 112/307/14 110/303/14
f 107/295/15 105/290/15 109/300/15 111/305/15
f 108/298/16 107/295/16 111/305/16 112/308/16
f 105/291/17 106/293/17 110/303/17 109/301/17
usemtl Planks
f 9/25/1 11/27/1 12/28/1 10/26/1
f 13/29/2 14/30/2 16/32/2 15/31/2
f 10/26/4 12/28/4 16/32/4 14/30/4
f 11/27/3 9/25/3 13/29/3 15/31/3
f 12/28/6 11/27/6 15/31/6 16/32/6
f 9/25/5 10/26/5 14/30/5 13/29/5
